<svg width="19" height="19" viewBox="0 0 19 19" fill="none" xmlns="http://www.w3.org/2000/svg">
<path d="M2.375 4.15625C2.04844 4.15625 1.78125 4.42344 1.78125 4.75V5.57012L8.18262 10.8248C8.95078 11.4557 10.0529 11.4557 10.8211 10.8248L17.2188 5.57012V4.75C17.2188 4.42344 16.9516 4.15625 16.625 4.15625H2.375ZM1.78125 7.87461V14.25C1.78125 14.5766 2.04844 14.8438 2.375 14.8438H16.625C16.9516 14.8438 17.2188 14.5766 17.2188 14.25V7.87461L11.9492 12.2016C10.5242 13.3705 8.47207 13.3705 7.05078 12.2016L1.78125 7.87461ZM0 4.75C0 3.44004 1.06504 2.375 2.375 2.375H16.625C17.935 2.375 19 3.44004 19 4.75V14.25C19 15.56 17.935 16.625 16.625 16.625H2.375C1.06504 16.625 0 15.56 0 14.25V4.75Z" fill="white"/>
</svg>
